<svg xmlns="http://www.w3.org/2000/svg" viewBox="0 0 271.68 395.5"><defs><style>.cls-1{fill:#fff;}</style></defs><title>Asset 1</title><g id="Layer_2" data-name="Layer 2"><g id="Layer_1-2" data-name="Layer 1"><path class="cls-1" d="M256.76,197.81a134.92,134.92,0,0,1,14.92,61.85c0,74.9-60.94,135.84-135.84,135.84S0,334.56,0,259.66a10,10,0,1,1,20,0A115.84,115.84,0,1,0,145.84,144.24v54.52a10,10,0,0,1-20,0V133.81a10,10,0,0,1,10-10A135.7,135.7,0,0,1,244,177.49a115.85,115.85,0,1,0-108.11,74.2,10,10,0,0,1,10,10v60.89a10,10,0,0,1-20,0V271.32C55.59,266.18,0,207.38,0,135.84,0,60.94,60.94,0,135.84,0S271.68,60.94,271.68,135.84A136.19,136.19,0,0,1,256.76,197.81Z"/></g></g></svg>